<mxfile modified="2020-08-15T10:24:32.552Z" host="app.diagrams.net" agent="5.0 (X11)" etag="xpjNDVFMcXj93Gby5MEL" version="13.6.2" type="github">
  <diagram id="f106602c-feb2-e66a-4537-3a34d633f6aa" name="Page-1">
    <mxGraphModel dx="1350" dy="1138" grid="0" gridSize="10" guides="1" tooltips="1" connect="1" arrows="1" fold="1" page="0" pageScale="1" pageWidth="1169" pageHeight="827" background="#ffffff" math="0" shadow="0">
      <root>
        <mxCell id="0" />
        <mxCell id="1" parent="0" />
        <mxCell id="2" value="&lt;h1&gt;&lt;font face=&quot;Garamond&quot;&gt;&lt;b&gt;&lt;i&gt;&lt;font style=&quot;font-size: 18px&quot;&gt;&amp;nbsp;&amp;nbsp;&amp;nbsp;&amp;nbsp;&amp;nbsp;&amp;nbsp;&amp;nbsp;&amp;nbsp;&amp;nbsp;&amp;nbsp;&amp;nbsp;&amp;nbsp;&amp;nbsp;&amp;nbsp;&amp;nbsp;&amp;nbsp;&amp;nbsp;&amp;nbsp;&amp;nbsp;&amp;nbsp;&amp;nbsp;&amp;nbsp;&amp;nbsp;&amp;nbsp;&amp;nbsp;&amp;nbsp;&amp;nbsp; &amp;nbsp; &amp;nbsp; &amp;nbsp; &amp;nbsp; &amp;nbsp; &amp;nbsp; &amp;nbsp; &amp;nbsp; &amp;nbsp; &amp;nbsp; &amp;nbsp; &amp;nbsp; &amp;nbsp; &amp;nbsp; Amazon S3 (Simple Storage Service)&lt;/font&gt;&lt;/i&gt;&lt;/b&gt;&lt;/font&gt;&lt;/h1&gt;" style="fillColor=#a0522d;strokeColor=#6D1F00;shadow=1;fontSize=14;align=left;spacingLeft=50;html=1;fontColor=#ffffff;" parent="1" vertex="1">
          <mxGeometry x="60" y="-85" width="1085" height="40" as="geometry" />
        </mxCell>
        <mxCell id="16" value="" style="rounded=1;absoluteArcSize=1;arcSize=2;html=1;strokeColor=none;gradientColor=none;shadow=0;dashed=0;strokeColor=none;fontSize=12;fontColor=#9E9E9E;align=left;verticalAlign=top;spacing=10;spacingTop=-4;fillColor=#E0E0E0;" parent="1" vertex="1">
          <mxGeometry x="180" y="740" width="670" height="30" as="geometry" />
        </mxCell>
        <mxCell id="RVKlO0Za_aRiEROvdJjI-28" value="" style="outlineConnect=0;dashed=0;verticalLabelPosition=bottom;verticalAlign=top;align=center;html=1;shape=mxgraph.aws3.s3;fillColor=#E05243;gradientColor=none;" vertex="1" parent="1">
          <mxGeometry x="465" y="-2" width="167.5" height="190" as="geometry" />
        </mxCell>
        <mxCell id="RVKlO0Za_aRiEROvdJjI-31" value="" style="edgeStyle=orthogonalEdgeStyle;fontSize=12;html=1;endArrow=blockThin;endFill=1;rounded=0;strokeWidth=2;endSize=4;startSize=4;dashed=0;strokeColor=#4284F3;" edge="1" parent="1">
          <mxGeometry width="100" relative="1" as="geometry">
            <mxPoint x="649" y="88" as="sourcePoint" />
            <mxPoint x="749" y="88" as="targetPoint" />
          </mxGeometry>
        </mxCell>
        <mxCell id="RVKlO0Za_aRiEROvdJjI-32" value="&lt;h1&gt;S3&lt;br&gt;&lt;/h1&gt;&lt;p&gt;Simple Storage Service.&lt;br&gt;&lt;/p&gt;" style="text;html=1;strokeColor=none;fillColor=none;spacing=5;spacingTop=-20;whiteSpace=wrap;overflow=hidden;rounded=0;" vertex="1" parent="1">
          <mxGeometry x="754" y="33" width="190" height="75" as="geometry" />
        </mxCell>
      </root>
    </mxGraphModel>
  </diagram>
</mxfile>
